<svg width="20" height="20" viewBox="0 0 20 20" fill="none" xmlns="http://www.w3.org/2000/svg">
<path d="M8.3067 4.09248C8.35339 4.18751 8.38422 4.28927 8.39803 4.39389L8.65326 8.18881L8.77996 10.0962C8.78127 10.2924 8.81204 10.4873 8.87129 10.6746C9.02431 11.0381 9.39241 11.2691 9.79289 11.253L15.8954 10.8538C16.1597 10.8495 16.4148 10.9483 16.6048 11.1286C16.7631 11.2788 16.8653 11.4753 16.8975 11.6867L16.9083 11.8151C16.6558 15.3119 14.0876 18.2285 10.598 18.9814C7.10843 19.7343 3.53005 18.1439 1.80566 15.0736C1.30853 14.1816 0.998023 13.2011 0.89236 12.1898C0.84822 11.8904 0.828784 11.588 0.834241 11.2856C0.828791 7.53658 3.49852 4.29546 7.23565 3.5141C7.68543 3.44406 8.12637 3.68217 8.3067 4.09248Z" fill="#9896A3"/>
<path opacity="0.4" d="M10.7975 0.834003C14.9774 0.940343 18.4905 3.94606 19.1667 7.99452L19.1602 8.02439L19.1418 8.06783L19.1443 8.18708C19.1348 8.34507 19.0738 8.49708 18.9686 8.61986C18.8591 8.74776 18.7095 8.83486 18.5448 8.86867L18.4443 8.88245L11.4036 9.33864C11.1694 9.36174 10.9362 9.28622 10.7621 9.13088C10.6169 9.00142 10.5242 8.82667 10.4979 8.63837L10.0254 1.60789C10.0171 1.58412 10.0171 1.55835 10.0254 1.53458C10.0318 1.34078 10.1171 1.15761 10.2622 1.02596C10.4073 0.89432 10.6001 0.825185 10.7975 0.834003Z" fill="#9896A3"/>
</svg>
