<svg width="19" height="19" viewBox="0 0 19 19" fill="none" xmlns="http://www.w3.org/2000/svg">
<path d="M7.47336 3.25923C7.52004 3.35426 7.55088 3.45602 7.56469 3.56064L7.81992 7.35556L7.94661 9.26298C7.94792 9.45913 7.9787 9.65402 8.03794 9.84136C8.19096 10.2048 8.55907 10.4359 8.95955 10.4197L15.0621 10.0206C15.3263 10.0162 15.5815 10.1151 15.7715 10.2953C15.9298 10.4456 16.032 10.6421 16.0642 10.8535L16.075 10.9818C15.8225 14.4787 13.2542 17.3953 9.76466 18.1482C6.27509 18.901 2.69671 17.3106 0.972317 14.2403C0.475189 13.3483 0.164679 12.3679 0.0590168 11.3566C0.0148762 11.0572 -0.00455997 10.7548 0.000897623 10.4523C-0.00455212 6.70333 2.66518 3.46221 6.40231 2.68085C6.85209 2.61081 7.29303 2.84892 7.47336 3.25923Z" fill="#F5FFFC"/>
<path opacity="0.4" d="M9.96417 0.000750921C14.1441 0.107091 17.6571 3.11281 18.3333 7.16127L18.3269 7.19114L18.3084 7.23458L18.311 7.35383C18.3014 7.51182 18.2404 7.66383 18.1353 7.78661C18.0258 7.91451 17.8762 8.00161 17.7115 8.03542L17.611 8.0492L10.5703 8.50539C10.3361 8.52849 10.1029 8.45297 9.92873 8.29762C9.7836 8.16817 9.69081 7.99342 9.6646 7.80512L9.19202 0.774641C9.1838 0.750868 9.1838 0.725097 9.19202 0.701325C9.19848 0.507533 9.28378 0.324353 9.42887 0.192711C9.57397 0.0610681 9.76676 -0.008067 9.96417 0.000750921Z" fill="#F5FFFC"/>
</svg>
