<svg width="17" height="19" viewBox="0 0 17 19" fill="none" xmlns="http://www.w3.org/2000/svg">
<path d="M11.963 14.7493C11.5464 14.7401 11.2113 14.3918 11.2113 13.9701C11.2023 13.5484 11.5373 13.201 11.9539 13.1918H11.963C12.3886 13.1918 12.7327 13.5402 12.7327 13.9701C12.7327 14.4009 12.3886 14.7493 11.963 14.7493ZM8.26811 11.3759C7.85154 11.3952 7.50741 11.0643 7.4893 10.6435C7.4893 10.2218 7.81531 9.87351 8.23189 9.85426C8.63941 9.85426 8.97448 10.176 8.98353 10.5876C9.00165 11.0102 8.67563 11.3585 8.26811 11.3759ZM8.26811 14.7034C7.85154 14.7227 7.50741 14.3918 7.4893 13.9701C7.4893 13.5484 7.81531 13.201 8.23189 13.1818C8.63941 13.1818 8.97448 13.5035 8.98353 13.916C9.00165 14.3377 8.67563 14.686 8.26811 14.7034ZM4.5461 11.3759C4.12953 11.3952 3.7854 11.0643 3.76729 10.6435C3.76729 10.2218 4.0933 9.87351 4.50988 9.85426C4.9174 9.85426 5.25247 10.176 5.26153 10.5876C5.27964 11.0102 4.95362 11.3585 4.5461 11.3759ZM4.53705 14.7034C4.12047 14.7227 3.77634 14.3918 3.75823 13.9701C3.75823 13.5484 4.08425 13.201 4.50082 13.1818C4.90834 13.1818 5.24341 13.5035 5.25247 13.916C5.27058 14.3377 4.94457 14.686 4.53705 14.7034ZM11.2204 10.6343C11.2204 10.2127 11.5464 9.87351 11.963 9.86434C12.3705 9.86434 12.6965 10.1934 12.7146 10.5977C12.7237 11.0193 12.3976 11.3677 11.9901 11.3759C11.5735 11.3851 11.2294 11.0643 11.2204 10.6435V10.6343ZM0 6.65234V13.6309C0 16.5276 1.82931 18.3334 4.70006 18.3334H11.7909C14.6888 18.3334 16.5 16.5643 16.5 13.6868V6.65234H0Z" fill="#F5FFFC"/>
<path opacity="0.4" d="M0.00305176 6.65214C0.0148245 6.11406 0.0601044 5.04614 0.145231 4.70239C0.579918 2.76914 2.05604 1.54081 4.16609 1.36572H12.3346C14.4265 1.54997 15.9208 2.78656 16.3554 4.70239C16.4397 5.03697 16.4849 6.11314 16.4967 6.65214H0.00305176Z" fill="#F5FFFC"/>
<path d="M4.86278 4.2075C5.26124 4.2075 5.56009 3.90592 5.56009 3.50167V0.70675C5.56009 0.3025 5.26124 0 4.86278 0C4.46431 0 4.16547 0.3025 4.16547 0.70675V3.50167C4.16547 3.90592 4.46431 4.2075 4.86278 4.2075Z" fill="#F5FFFC"/>
<path d="M11.637 4.2075C12.0264 4.2075 12.3343 3.90592 12.3343 3.50167V0.70675C12.3343 0.3025 12.0264 0 11.637 0C11.2385 0 10.9397 0.3025 10.9397 0.70675V3.50167C10.9397 3.90592 11.2385 4.2075 11.637 4.2075Z" fill="#F5FFFC"/>
</svg>
