<svg width="20" height="20" viewBox="0 0 20 20" fill="none" xmlns="http://www.w3.org/2000/svg">
<path opacity="0.4" d="M14.2756 19.1571H5.72355C4.39758 19.2396 3.09541 18.7799 2.11558 17.8843C1.21999 16.9036 0.760296 15.6014 0.842712 14.2763V5.72351C0.760296 4.39846 1.21908 3.0963 2.11466 2.11556C3.09541 1.21999 4.39758 0.760296 5.72355 0.842711H14.2756C15.5997 0.760296 16.901 1.21907 17.8808 2.11465C18.7755 3.0963 19.2361 4.39754 19.1573 5.72351V14.2763C19.2388 15.6014 18.78 16.9036 17.8845 17.8843C16.9037 18.7799 15.6015 19.2396 14.2756 19.1571Z" fill="#56555C"/>
<path d="M14.6333 8.53102L8.62654 14.5676C8.31416 14.8717 7.90359 15.0416 7.47518 15.0416H5.37774C5.26171 15.0416 5.15461 14.9969 5.07428 14.9164C4.99395 14.8359 4.95825 14.7286 4.95825 14.6123L5.0118 12.4928C5.02073 12.0725 5.19031 11.679 5.48484 11.3839L9.7422 7.11801C9.8136 7.04646 9.93856 7.04646 10.01 7.11801L11.5032 8.60524C11.6013 8.70272 11.7441 8.76622 11.8959 8.76622C12.2261 8.76622 12.4849 8.49793 12.4849 8.17598C12.4849 8.015 12.4225 7.87191 12.3243 7.76459C12.2975 7.72882 10.8757 6.31313 10.8757 6.31313C10.7865 6.2237 10.7865 6.07167 10.8757 5.98224L11.4737 5.37411C12.0271 4.81963 12.9196 4.81963 13.473 5.37411L14.6333 6.53671C15.1777 7.08224 15.1777 7.97654 14.6333 8.53102Z" fill="#56555C"/>
</svg>
