<svg width="19" height="19" viewBox="0 0 19 19" fill="none" xmlns="http://www.w3.org/2000/svg">
<path opacity="0.4" d="M12.9025 0H16.0063C17.2918 0 18.3333 1.05036 18.3333 2.34663V5.47665C18.3333 6.77292 17.2918 7.82328 16.0063 7.82328H12.9025C11.6171 7.82328 10.5756 6.77292 10.5756 5.47665V2.34663C10.5756 1.05036 11.6171 0 12.9025 0Z" fill="#9896A3"/>
<path d="M5.43078 10.5101C6.7162 10.5101 7.75776 11.5604 7.75776 12.8567V15.9867C7.75776 17.2821 6.7162 18.3333 5.43078 18.3333H2.32698C1.04157 18.3333 0 17.2821 0 15.9867V12.8567C0 11.5604 1.04157 10.5101 2.32698 10.5101H5.43078ZM16.0064 10.5101C17.2918 10.5101 18.3333 11.5604 18.3333 12.8567V15.9867C18.3333 17.2821 17.2918 18.3333 16.0064 18.3333H12.9026C11.6171 18.3333 10.5756 17.2821 10.5756 15.9867V12.8567C10.5756 11.5604 11.6171 10.5101 12.9026 10.5101H16.0064ZM5.43078 0C6.7162 0 7.75776 1.05036 7.75776 2.34663V5.47665C7.75776 6.77292 6.7162 7.82328 5.43078 7.82328H2.32698C1.04157 7.82328 0 6.77292 0 5.47665V2.34663C0 1.05036 1.04157 0 2.32698 0H5.43078Z" fill="#F5FFFC"/>
</svg>
