<svg width="20" height="20" viewBox="0 0 20 20" fill="none" xmlns="http://www.w3.org/2000/svg">
<path opacity="0.4" d="M13.7359 0.833252H16.8397C18.1251 0.833252 19.1667 1.88362 19.1667 3.17988V6.3099C19.1667 7.60617 18.1251 8.65653 16.8397 8.65653H13.7359C12.4505 8.65653 11.4089 7.60617 11.4089 6.3099V3.17988C11.4089 1.88362 12.4505 0.833252 13.7359 0.833252Z" fill="#9896A3"/>
<path d="M6.26413 11.3433C7.54954 11.3433 8.59111 12.3937 8.59111 13.6899V16.82C8.59111 18.1153 7.54954 19.1666 6.26413 19.1666H3.16032C1.87491 19.1666 0.833344 18.1153 0.833344 16.82V13.6899C0.833344 12.3937 1.87491 11.3433 3.16032 11.3433H6.26413ZM16.8397 11.3433C18.1251 11.3433 19.1667 12.3937 19.1667 13.6899V16.82C19.1667 18.1153 18.1251 19.1666 16.8397 19.1666H13.7359C12.4505 19.1666 11.4089 18.1153 11.4089 16.82V13.6899C11.4089 12.3937 12.4505 11.3433 13.7359 11.3433H16.8397ZM6.26413 0.833252C7.54954 0.833252 8.59111 1.88362 8.59111 3.17988V6.3099C8.59111 7.60617 7.54954 8.65653 6.26413 8.65653H3.16032C1.87491 8.65653 0.833344 7.60617 0.833344 6.3099V3.17988C0.833344 1.88362 1.87491 0.833252 3.16032 0.833252H6.26413Z" fill="#9896A3"/>
</svg>
