<svg width="16" height="20" viewBox="0 0 16 20" fill="none" xmlns="http://www.w3.org/2000/svg">
<path opacity="0.4" d="M14.2414 7.26917C13.8275 7.26917 13.2793 7.26 12.5967 7.26C10.9321 7.26 9.56339 5.88225 9.56339 4.202V1.254C9.56339 1.02209 9.37823 0.833252 9.1486 0.833252H4.29997C2.03721 0.833252 0.208313 2.69042 0.208313 4.9665V14.8436C0.208313 17.2315 2.12435 19.1666 4.48876 19.1666H11.7091C13.9636 19.1666 15.7916 17.3213 15.7916 15.0434V7.68167C15.7916 7.44883 15.6074 7.26092 15.3769 7.26183C14.9893 7.26458 14.5246 7.26917 14.2414 7.26917Z" fill="#56555C"/>
<path opacity="0.4" d="M11.7437 1.35318C11.4696 1.06809 10.9911 1.26426 10.9911 1.65934V4.0766C10.9911 5.09043 11.8262 5.92459 12.84 5.92459C13.4789 5.93193 14.3663 5.93376 15.1198 5.93193C15.5057 5.93101 15.7018 5.46993 15.4342 5.19126C14.4671 4.18568 12.7355 2.38351 11.7437 1.35318Z" fill="#56555C"/>
<path d="M10.2165 12.6517C10.5932 12.6517 10.8994 12.9579 10.8994 13.3347C10.8994 13.7114 10.5932 14.0167 10.2165 14.0167H5.22616C4.84941 14.0167 4.54416 13.7114 4.54416 13.3347C4.54416 12.9579 4.84941 12.6517 5.22616 12.6517H10.2165ZM8.32898 8.07373C8.70573 8.07373 9.0119 8.3799 9.0119 8.75665C9.0119 9.1334 8.70573 9.43865 8.32898 9.43865H5.22607C4.84932 9.43865 4.54407 9.1334 4.54407 8.75665C4.54407 8.3799 4.84932 8.07373 5.22607 8.07373H8.32898Z" fill="#56555C"/>
</svg>
