<svg width="16" height="16" viewBox="0 0 16 16" fill="none" xmlns="http://www.w3.org/2000/svg">
<path opacity="0.4" d="M11.7333 0H4.26667C1.54311 0 0 1.54311 0 4.26667V11.7333C0 14.4498 1.536 16 4.26667 16H11.7333C14.4569 16 16 14.4498 16 11.7333V4.26667C16 1.54311 14.4569 0 11.7333 0Z" fill="#5577FF"/>
<path d="M10.6564 8.56672H8.59967V10.6056C8.59967 10.9339 8.33121 11.2 8.00005 11.2C7.66889 11.2 7.40043 10.9339 7.40043 10.6056V8.56672H5.34368C5.03479 8.53501 4.80005 8.27696 4.80005 7.96911C4.80005 7.66125 5.03479 7.4032 5.34368 7.37149H7.39399V5.33897C7.42597 5.03275 7.68628 4.80005 7.99683 4.80005C8.30738 4.80005 8.56768 5.03275 8.59967 5.33897V7.37149H10.6564C10.9653 7.4032 11.2 7.66125 11.2 7.96911C11.2 8.27696 10.9653 8.53501 10.6564 8.56672Z" fill="#5577FF"/>
</svg>
