<svg width="20" height="20" viewBox="0 0 20 20" fill="none" xmlns="http://www.w3.org/2000/svg">
<path opacity="0.4" d="M14.4773 3.68853H11.7795C11.1074 3.69297 10.4693 3.39401 10.0434 2.87513L9.15503 1.64691C8.73627 1.12348 8.0982 0.823118 7.42712 0.833513H5.5199C2.09668 0.833513 0.833344 2.8426 0.833344 6.25885V9.95166C0.829094 10.3578 19.1627 10.3573 19.1639 9.95166V8.87798C19.1802 5.46173 17.9494 3.68853 14.4773 3.68853Z" fill="#F5FFFC"/>
<path d="M14.4692 3.68857C15.6652 3.59607 16.8524 3.95614 17.7946 4.69718C17.9031 4.7892 18.0039 4.88985 18.0961 4.99814C18.3894 5.34105 18.6161 5.7355 18.7645 6.16129C19.0565 7.03642 19.1917 7.95607 19.1639 8.87803V13.6933C19.1627 14.0989 19.1327 14.5039 19.0742 14.9053C18.9627 15.6136 18.7136 16.2934 18.3406 16.9062C18.1693 17.2023 17.9611 17.4756 17.7212 17.7196C16.6351 18.7164 15.1929 19.2353 13.7193 19.1593H6.26974C4.7938 19.2347 3.34924 18.7161 2.25968 17.7196C2.02263 17.4751 1.81726 17.2018 1.6484 16.9062C1.2777 16.2938 1.03381 15.6134 0.931151 14.9053C0.865875 14.5046 0.833344 14.0993 0.833344 13.6933V8.87803C0.833344 8.47587 0.854951 8.074 0.898548 7.67421C0.923 7.48712 0.980054 7.30818 0.980054 7.12923C1.06279 6.64677 1.21372 6.17846 1.42833 5.73833C2.06407 4.37996 3.36815 3.68857 5.50359 3.68857H14.4692ZM14.6892 11.733H5.38948C4.97085 11.733 4.63148 12.0717 4.63148 12.4895C4.63148 12.9073 4.97085 13.246 5.38948 13.246H14.6322C14.8346 13.2548 15.0322 13.1823 15.1807 13.0447C15.3292 12.9072 15.4164 12.716 15.4228 12.5139C15.4342 12.3362 15.3757 12.1611 15.2598 12.0259C15.1264 11.8441 14.915 11.7356 14.6892 11.733Z" fill="#F5FFFC"/>
</svg>
