<svg width="18" height="20" viewBox="0 0 18 20" fill="none" xmlns="http://www.w3.org/2000/svg">
<path d="M9.01096 12.5942C7.54019 12.5942 6.35046 11.4484 6.35046 10.0092C6.35046 8.57004 7.54019 7.41504 9.01096 7.41504C10.4817 7.41504 11.6434 8.57004 11.6434 10.0092C11.6434 11.4484 10.4817 12.5942 9.01096 12.5942Z" fill="black"/>
<path opacity="0.4" d="M17.4609 12.1727C17.2829 11.8977 17.0299 11.6227 16.702 11.4485C16.4397 11.3202 16.2711 11.1093 16.1212 10.8618C15.6435 10.0735 15.9245 9.03766 16.7208 8.57016C17.6576 8.04766 17.9574 6.8835 17.414 5.976L16.7864 4.89433C16.2524 3.98683 15.0814 3.666 14.154 4.19766C13.3296 4.63766 12.271 4.34433 11.7932 3.56516C11.6434 3.3085 11.559 3.0335 11.5778 2.7585C11.6059 2.401 11.4935 2.06183 11.3248 1.78683C10.9782 1.2185 10.3506 0.833496 9.65736 0.833496H8.33648C7.65262 0.851829 7.02496 1.2185 6.67835 1.78683C6.50036 2.06183 6.39731 2.401 6.41605 2.7585C6.43478 3.0335 6.35047 3.3085 6.20058 3.56516C5.72282 4.34433 4.66424 4.63766 3.84923 4.19766C2.91244 3.666 1.75081 3.98683 1.20747 4.89433L0.579819 5.976C0.0458463 6.8835 0.34562 8.04766 1.27305 8.57016C2.06932 9.03766 2.35036 10.0735 1.88196 10.8618C1.72271 11.1093 1.55409 11.3202 1.29178 11.4485C0.973273 11.6227 0.692234 11.8977 0.542347 12.1727C0.195733 12.741 0.214469 13.456 0.561083 14.0518L1.20747 15.1518C1.55409 15.7385 2.20047 16.1052 2.87496 16.1052C3.19347 16.1052 3.56819 16.0135 3.86797 15.8302C4.10217 15.6743 4.3832 15.6193 4.69235 15.6193C5.61977 15.6193 6.39731 16.3802 6.41605 17.2877C6.41605 18.3418 7.2779 19.1668 8.36458 19.1668H9.63862C10.7159 19.1668 11.5778 18.3418 11.5778 17.2877C11.6059 16.3802 12.3834 15.6193 13.3109 15.6193C13.6106 15.6193 13.8917 15.6743 14.1352 15.8302C14.435 16.0135 14.8004 16.1052 15.1282 16.1052C15.7934 16.1052 16.4397 15.7385 16.7864 15.1518L17.4421 14.0518C17.7794 13.4377 17.8075 12.741 17.4609 12.1727Z" fill="black"/>
</svg>
