<svg width="19" height="19" viewBox="0 0 19 19" fill="none" xmlns="http://www.w3.org/2000/svg">
<path d="M12.2037 1.83325C12.1604 2.05601 12.1388 2.28243 12.1392 2.50935C12.1392 4.54526 13.7921 6.19569 15.831 6.19569C16.0555 6.19459 16.2794 6.17303 16.5 6.1313V13.4396C16.5 16.5142 14.6864 18.3333 11.6072 18.3333H4.90083C1.81363 18.3333 0 16.5142 0 13.4396V6.74301C0 3.66837 1.81363 1.83325 4.90083 1.83325H12.2037ZM12.2069 7.33471C12.0277 7.36049 11.8666 7.45774 11.7604 7.60423L9.55178 10.4454L7.03688 8.46545C6.8933 8.35359 6.71065 8.3042 6.53016 8.32843C6.34967 8.35266 6.18657 8.44847 6.07767 8.59423L3.36932 12.0874C3.27412 12.2061 3.22287 12.3539 3.22423 12.5059L3.22661 12.6071C3.25286 12.8729 3.43519 13.1026 3.69635 13.1851C3.99014 13.2778 4.3096 13.1608 4.47362 12.9003L6.73864 9.97057L9.25354 11.9425C9.39658 12.0578 9.58044 12.1101 9.76286 12.0874C9.94529 12.0646 10.1106 11.9687 10.2208 11.8218L12.8405 8.4413V8.4252C13.0648 8.12385 13.0075 7.6989 12.7115 7.4674C12.5683 7.3568 12.3862 7.30892 12.2069 7.33471Z" fill="#F5FFFC"/>
<path opacity="0.4" d="M16.0417 4.58333C17.3073 4.58333 18.3333 3.55732 18.3333 2.29167C18.3333 1.02601 17.3073 0 16.0417 0C14.776 0 13.75 1.02601 13.75 2.29167C13.75 3.55732 14.776 4.58333 16.0417 4.58333Z" fill="#F5FFFC"/>
</svg>
