<svg width="20" height="20" viewBox="0 0 20 20" fill="none" xmlns="http://www.w3.org/2000/svg">
<path d="M13.0371 2.6665C12.9937 2.88926 12.9721 3.11568 12.9726 3.3426C12.9726 5.37851 14.6254 7.02894 16.6643 7.02894C16.8888 7.02784 17.1128 7.00628 17.3333 6.96455V14.2728C17.3333 17.3475 15.5197 19.1665 12.4406 19.1665H5.73417C2.64697 19.1665 0.833344 17.3475 0.833344 14.2728V7.57626C0.833344 4.50163 2.64697 2.6665 5.73417 2.6665H13.0371ZM13.0403 8.16796C12.861 8.19374 12.6999 8.29099 12.5937 8.43748L10.3851 11.2787L7.87023 9.2987C7.72665 9.18684 7.54399 9.13745 7.3635 9.16168C7.18302 9.18591 7.01991 9.28172 6.91102 9.42748L4.20266 12.9207C4.10747 13.0393 4.05622 13.1872 4.05757 13.3392L4.05995 13.4404C4.08621 13.7062 4.26854 13.9359 4.52969 14.0183C4.82349 14.1111 5.14294 13.994 5.30696 13.7336L7.57199 10.8038L10.0869 12.7758C10.2299 12.8911 10.4138 12.9434 10.5962 12.9206C10.7786 12.8978 10.9439 12.802 11.0542 12.655L13.6738 9.27455V9.25846C13.8981 8.9571 13.8409 8.53216 13.5449 8.30065C13.4016 8.19005 13.2195 8.14217 13.0403 8.16796Z" fill="#9896A3"/>
<path opacity="0.4" d="M16.875 5.41659C18.1407 5.41659 19.1667 4.39057 19.1667 3.12492C19.1667 1.85927 18.1407 0.833252 16.875 0.833252C15.6094 0.833252 14.5833 1.85927 14.5833 3.12492C14.5833 4.39057 15.6094 5.41659 16.875 5.41659Z" fill="#9896A3"/>
</svg>
